<svg width="14" height="14" viewBox="0 0 14 14" fill="none" xmlns="http://www.w3.org/2000/svg">
<g clip-path="url(#clip0)">
<path d="M1.79536 -0.00118485H12.2013C12.4388 -0.00699231 12.6751 0.0355122 12.8957 0.123751C13.1163 0.211989 13.3167 0.344122 13.4847 0.512135C13.6527 0.680148 13.7848 0.88054 13.8731 1.10115C13.9613 1.32177 14.0038 1.55801 13.998 1.79554V12.2021C14.0038 12.4396 13.9613 12.6759 13.8731 12.8965C13.7848 13.1171 13.6527 13.3175 13.4847 13.4855C13.3167 13.6535 13.1163 13.7856 12.8957 13.8739C12.6751 13.9621 12.4388 14.0046 12.2013 13.9988H1.79536C1.55783 14.0046 1.32159 13.9621 1.10097 13.8739C0.880357 13.7856 0.679965 13.6535 0.511952 13.4855C0.343939 13.3175 0.211806 13.1171 0.123568 12.8965C0.0353291 12.6759 -0.00717541 12.4396 -0.00136795 12.2021V1.79554C-0.00717541 1.55801 0.0353291 1.32177 0.123568 1.10115C0.211806 0.88054 0.343939 0.680148 0.511952 0.512135C0.679965 0.344122 0.880357 0.211989 1.10097 0.123751C1.32159 0.0355122 1.55783 -0.00699231 1.79536 -0.00118485ZM10.1971 1.5543C10.0301 1.55479 9.87008 1.62138 9.75206 1.73952C9.63404 1.85766 9.5676 2.01773 9.56728 2.18472V3.69294C9.5676 3.85994 9.63404 4.02001 9.75206 4.13814C9.87008 4.25628 10.0301 4.32288 10.1971 4.32337H11.7796C11.9466 4.32288 12.1067 4.2563 12.2248 4.13818C12.3429 4.02006 12.4095 3.85999 12.41 3.69294V2.18472C12.4095 2.01767 12.3429 1.85761 12.2248 1.73949C12.1067 1.62136 11.9466 1.55479 11.7796 1.5543H10.1971ZM12.4161 5.91937H11.1841C11.3034 6.30843 11.3641 6.71311 11.364 7.12005C11.3458 8.25614 10.8771 9.33848 10.0611 10.1292C9.24512 10.9198 8.14854 11.3541 7.01244 11.3366C5.87609 11.3545 4.77917 10.9202 3.96299 10.1293C3.1468 9.33848 2.6782 8.25579 2.66027 7.11944C2.66012 6.71249 2.72074 6.3078 2.84013 5.91875H1.55412V11.8326C1.55444 11.9801 1.61321 12.1215 1.71755 12.2259C1.82189 12.3302 1.96332 12.389 2.11088 12.3893H11.86C12.0076 12.389 12.149 12.3302 12.2533 12.2259C12.3577 12.1215 12.4164 11.9801 12.4168 11.8326V5.91937H12.4161ZM7.01429 4.24418C6.28028 4.23286 5.57181 4.51346 5.04462 5.0243C4.51743 5.53515 4.21466 6.23443 4.20287 6.96843C4.21466 7.70243 4.51743 8.40171 5.04462 8.91256C5.57181 9.4234 6.28028 9.70401 7.01429 9.69268C7.7484 9.70417 8.45702 9.42364 8.98435 8.91278C9.51167 8.40191 9.81453 7.70254 9.82632 6.96843C9.82048 6.60473 9.74304 6.24573 9.59842 5.91197C9.45381 5.5782 9.24485 5.27619 8.98348 5.0232C8.72211 4.77022 8.41346 4.57121 8.07516 4.43754C7.73686 4.30387 7.37553 4.23817 7.01183 4.24418H7.01429Z" fill="#FF00B8"/>
</g>
<defs>
<clipPath id="clip0">
<rect width="14" height="14" fill="white"/>
</clipPath>
</defs>
</svg>
